<?xml version="1.0" standalone="no"?>
<!DOCTYPE svg PUBLIC "-//W3C//DTD SVG 20010904//EN"
 "http://www.w3.org/TR/2001/REC-SVG-20010904/DTD/svg10.dtd">
<svg version="1.0" xmlns="http://www.w3.org/2000/svg"
 width="640.000000pt" height="640.000000pt" viewBox="0 0 640.000000 640.000000"
 preserveAspectRatio="xMidYMid meet">
<metadata>
Created by potrace 1.11, written by Peter Selinger 2001-2013
</metadata>
<g transform="translate(0.000000,640.000000) scale(0.100000,-0.100000)"
fill="#000000" stroke="none">
<path d="M3165 6300 c-108 -4 -246 -17 -320 -29 -71 -12 -159 -26 -195 -32
-36 -6 -78 -17 -93 -25 -16 -8 -40 -14 -54 -14 -33 0 -103 -21 -103 -31 0 -4
-26 -13 -57 -20 -32 -7 -63 -16 -68 -20 -6 -4 -45 -15 -86 -24 -41 -8 -94 -24
-117 -35 -22 -11 -45 -20 -49 -20 -5 0 -16 -9 -26 -20 -9 -11 -28 -20 -41 -20
-14 0 -28 -5 -31 -10 -4 -6 -39 -26 -78 -46 -40 -19 -76 -39 -82 -45 -5 -5
-19 -9 -32 -9 -13 0 -23 -4 -23 -8 0 -4 -12 -13 -27 -20 -16 -6 -50 -26 -78
-43 -27 -17 -67 -38 -88 -45 -22 -8 -48 -25 -59 -39 -11 -14 -27 -25 -36 -25
-9 0 -34 -16 -54 -35 -20 -19 -41 -35 -46 -35 -5 0 -25 -13 -43 -30 -19 -16
-39 -30 -45 -30 -5 0 -23 -13 -39 -30 -16 -16 -34 -30 -40 -30 -6 0 -32 -20
-59 -45 -27 -25 -53 -45 -57 -45 -3 0 -9 -9 -12 -20 -3 -11 -13 -23 -24 -26
-10 -4 -35 -23 -55 -43 -21 -20 -64 -61 -98 -91 -105 -96 -164 -159 -190 -201
-14 -22 -37 -47 -52 -55 -15 -8 -29 -22 -32 -32 -3 -10 -34 -42 -68 -72 -99
-87 -176 -169 -206 -220 -62 -105 -82 -146 -92 -193 -6 -29 -17 -65 -26 -81
-9 -19 -18 -82 -24 -180 -5 -83 -16 -173 -24 -201 -27 -95 -45 -190 -51 -264
-4 -41 -11 -84 -18 -95 -8 -15 -12 -106 -11 -306 0 -304 6 -355 51 -439 12
-24 23 -50 23 -58 0 -8 22 -62 50 -120 27 -57 54 -122 60 -144 6 -21 14 -39
18 -39 4 0 22 -25 40 -55 18 -30 38 -55 43 -55 6 0 17 -17 25 -37 16 -36 50
-86 89 -129 11 -12 30 -32 41 -45 12 -13 39 -40 60 -59 22 -20 82 -76 135
-125 159 -148 179 -165 192 -165 16 0 61 -47 70 -72 4 -10 17 -18 29 -18 13 0
39 -14 60 -31 34 -29 36 -32 26 -67 -6 -20 -23 -56 -39 -79 -16 -23 -29 -52
-29 -64 0 -12 -9 -36 -20 -54 -11 -18 -24 -64 -29 -102 -5 -39 -13 -79 -19
-89 -5 -10 -12 -39 -16 -63 -4 -24 -13 -56 -20 -70 -8 -14 -19 -46 -26 -70 -6
-24 -20 -53 -31 -64 -10 -11 -19 -35 -19 -52 0 -17 -5 -36 -10 -41 -6 -6 -24
-55 -40 -110 -16 -54 -37 -124 -48 -154 -10 -30 -22 -83 -26 -118 -4 -34 -13
-80 -21 -102 -8 -22 -12 -46 -9 -54 3 -7 -2 -79 -10 -159 -12 -114 -13 -158
-4 -201 l11 -56 58 0 c58 0 59 0 59 28 0 16 3 32 7 36 15 14 33 83 33 126 1
25 10 86 21 135 11 50 29 144 39 210 11 66 26 134 34 150 8 17 19 48 24 70 11
45 47 150 72 210 9 22 29 81 44 130 15 50 32 104 38 120 6 17 13 49 15 73 6
51 15 53 32 7 7 -20 27 -51 45 -69 18 -18 35 -37 37 -43 5 -14 132 -100 184
-124 22 -11 60 -31 85 -45 45 -25 142 -66 190 -79 14 -4 36 -14 50 -23 25 -16
32 -18 80 -26 14 -2 54 -13 90 -24 36 -11 102 -25 148 -32 46 -6 104 -18 130
-26 26 -7 66 -14 90 -14 23 0 86 -7 141 -15 128 -19 447 -24 479 -7 17 10 22
22 22 53 0 36 3 41 35 55 19 8 35 18 35 23 0 23 53 71 79 71 30 0 187 64 212
86 8 8 19 14 24 14 5 0 17 8 27 17 17 15 20 15 28 3 6 -8 10 -26 10 -40 0 -14
14 -45 30 -69 17 -24 30 -52 30 -62 0 -9 14 -31 30 -47 17 -17 30 -33 30 -37
0 -8 38 -51 106 -119 28 -28 57 -61 63 -74 6 -12 17 -22 23 -22 6 0 27 -12 47
-27 56 -43 155 -91 209 -101 61 -11 92 -1 92 31 0 31 -36 77 -59 77 -10 0 -25
8 -34 18 -9 9 -33 26 -53 37 -45 24 -304 269 -304 287 0 6 -9 22 -21 36 -38
50 -96 147 -124 209 -27 61 -27 63 -11 109 8 25 14 50 11 54 -6 10 14 26 45
35 14 4 27 11 30 15 3 4 37 22 75 39 l70 32 125 -10 c69 -6 150 -12 180 -14
30 -2 92 -10 137 -17 96 -15 116 -7 111 43 -2 23 -10 32 -28 38 -14 4 -56 17
-95 29 -38 12 -83 24 -100 27 -16 2 -68 11 -115 19 -47 7 -142 14 -212 14
l-128 0 -15 37 c-14 34 -53 74 -165 173 -34 30 -39 39 -34 65 9 57 27 120 35
130 5 5 9 28 9 52 0 24 9 59 19 78 25 47 17 105 -21 161 -46 69 -140 151 -201
175 -15 6 -32 19 -37 29 -5 10 -26 24 -45 30 -19 6 -35 15 -35 20 0 4 -14 13
-31 20 -19 8 -28 18 -25 27 5 11 -3 14 -37 11 -57 -4 -56 20 2 49 62 32 115
89 135 147 18 57 22 199 5 243 -24 65 -94 104 -127 71 -16 -16 -15 -74 3 -127
17 -48 15 -60 -26 -146 -24 -51 -36 -64 -73 -82 -126 -62 -298 -29 -394 74
-40 44 -42 49 -36 92 7 55 -7 78 -52 87 -28 5 -35 1 -68 -40 -88 -107 -246
-145 -318 -76 -17 17 -36 30 -43 30 -6 0 -22 14 -35 32 -24 32 -29 61 -35 182
-3 61 -13 76 -51 76 -39 0 -57 -33 -55 -106 1 -37 4 -78 7 -93 17 -81 29 -118
46 -134 10 -10 18 -22 18 -27 0 -4 11 -22 25 -38 14 -17 22 -33 18 -35 -5 -3
-57 -8 -118 -12 -119 -8 -158 -14 -250 -40 -33 -9 -92 -25 -132 -35 -98 -26
-189 -73 -206 -108 -28 -54 -65 -322 -74 -535 -6 -127 -11 -136 -54 -89 -46
48 -76 72 -92 72 -9 0 -31 16 -50 35 -19 19 -39 35 -45 35 -17 0 -113 86 -133
119 -10 17 -26 31 -34 31 -9 0 -19 8 -22 18 -4 9 -21 31 -37 48 -62 64 -94
100 -146 167 -40 52 -51 73 -47 93 4 21 -3 33 -33 60 -38 34 -100 149 -100
184 0 10 -4 21 -9 25 -5 3 -19 36 -31 73 -11 37 -30 94 -40 127 -11 33 -20 80
-19 105 0 25 -3 76 -6 114 -4 37 -2 129 4 205 18 207 46 290 70 205 9 -33 37
-67 153 -185 33 -33 101 -81 163 -115 30 -16 30 -41 0 -66 -21 -19 -28 -39
-41 -120 -13 -85 -13 -100 0 -132 20 -48 53 -49 80 -3 15 25 21 57 24 140 3
74 1 107 -7 107 -16 0 -13 20 4 27 9 3 23 -1 33 -9 9 -9 28 -18 42 -21 14 -3
34 -13 44 -20 19 -14 19 -16 3 -40 -11 -17 -13 -28 -6 -32 6 -4 7 -29 3 -64
-6 -53 -4 -60 17 -75 35 -24 45 -20 77 27 22 32 28 51 26 80 -2 21 -6 42 -9
47 -13 21 29 21 87 0 67 -24 274 -50 403 -50 115 1 311 33 381 63 33 14 73 28
89 32 17 4 39 15 50 25 11 9 37 23 57 29 21 7 47 26 59 42 11 16 26 29 33 29
23 0 100 48 120 75 10 14 24 25 31 25 13 0 55 42 55 54 0 5 20 26 44 47 24 21
47 51 51 66 10 40 55 112 79 128 59 38 353 44 456 9 53 -18 56 -21 73 -74 10
-30 25 -80 32 -110 15 -58 41 -119 80 -185 13 -22 33 -57 45 -77 11 -21 24
-38 28 -38 4 0 18 -16 31 -35 13 -19 38 -44 57 -55 18 -12 47 -34 65 -50 17
-17 37 -30 45 -30 7 0 21 -11 30 -25 9 -14 22 -25 28 -25 7 0 39 -13 72 -29
256 -124 379 -165 592 -197 131 -20 375 -14 519 11 137 24 269 82 390 170 20
15 24 14 70 -14 32 -20 49 -26 52 -18 2 7 10 17 16 22 20 16 25 57 13 92 -10
28 -9 38 12 78 13 25 37 62 54 83 17 20 40 60 50 89 10 29 26 69 37 90 10 20
19 45 19 54 0 9 9 26 20 39 21 24 22 28 25 130 1 36 5 79 8 95 9 44 -13 274
-29 314 -8 18 -14 42 -14 52 0 22 -73 168 -98 195 -9 11 -30 34 -45 53 -30 36
-100 91 -116 91 -5 0 -23 11 -39 25 -43 36 -93 55 -152 57 -62 3 -73 -9 -65
-72 6 -52 29 -76 83 -86 49 -9 192 -115 192 -143 0 -14 26 -75 65 -151 68
-132 69 -483 3 -609 -17 -31 -44 -82 -60 -113 -37 -71 -156 -208 -180 -208
-10 0 -30 -13 -45 -30 -14 -17 -34 -30 -43 -30 -9 0 -21 -5 -28 -12 -17 -17
-15 20 3 52 19 34 20 134 0 150 -22 18 -40 6 -71 -46 -23 -39 -28 -60 -29
-115 -1 -72 -20 -109 -56 -109 -10 0 -60 -14 -111 -31 l-93 -32 -176 7 c-117
4 -190 11 -219 21 -23 8 -57 15 -74 15 -17 0 -42 9 -56 20 -14 11 -37 20 -52
20 -49 0 -206 59 -243 90 -11 10 -36 23 -55 29 -19 6 -55 31 -80 56 -25 24
-49 44 -55 45 -16 0 -95 80 -143 141 -23 31 -56 92 -73 135 -18 43 -39 86 -48
94 -19 17 -45 184 -45 280 0 68 21 224 36 265 5 17 17 50 25 75 8 25 21 57 29
72 8 14 14 32 14 40 0 8 16 33 35 55 19 22 32 43 30 45 -3 3 10 21 29 41 19
21 37 45 40 54 3 10 23 26 45 36 21 11 50 30 64 43 14 13 29 24 33 24 3 0 19
9 35 21 32 23 74 22 74 -1 1 -24 177 -190 203 -190 5 0 20 -8 33 -19 13 -10
35 -22 49 -26 14 -4 51 -27 82 -51 60 -45 117 -74 148 -74 9 0 29 -9 44 -21
16 -12 35 -19 47 -16 10 3 26 -1 34 -9 7 -8 44 -21 82 -29 37 -8 97 -21 133
-30 71 -17 228 -18 273 -2 22 7 27 15 25 34 -3 22 -12 28 -68 43 -36 10 -85
25 -110 34 -25 10 -67 22 -95 27 -27 5 -59 14 -70 18 -32 14 -117 42 -155 50
-29 7 -171 72 -245 114 -72 40 -108 57 -119 57 -7 0 -29 13 -47 30 -19 16 -42
30 -51 30 -10 0 -33 16 -53 35 -19 20 -40 33 -45 30 -6 -3 -10 -2 -10 4 0 5
10 13 23 17 34 11 66 37 67 55 0 33 -56 43 -186 30 -117 -11 -201 -35 -209
-61 -3 -10 -16 -21 -28 -25 -34 -10 -217 -219 -230 -263 -13 -44 -34 -72 -56
-72 -14 0 -14 2 -1 10 12 7 12 12 2 22 -9 9 -12 9 -12 -3 -4 -97 -7 -119 -23
-136 -9 -11 -20 -35 -23 -54 -4 -19 -17 -67 -30 -108 -13 -40 -24 -88 -24
-106 0 -42 -32 -84 -51 -69 -9 7 -86 12 -207 12 -106 1 -197 4 -202 7 -5 3 -4
18 2 35 5 17 7 37 4 46 -3 8 0 27 8 42 24 49 0 342 -34 411 -12 24 -39 87 -61
139 -21 52 -40 95 -41 96 -38 19 -83 36 -96 36 -10 0 -39 -13 -65 -30 -38 -24
-47 -35 -45 -54 4 -24 43 -81 81 -117 48 -44 108 -196 122 -304 9 -71 -10
-220 -35 -267 -11 -21 -20 -45 -20 -54 0 -26 -41 -144 -51 -144 -5 0 -9 -6 -9
-13 0 -17 -61 -113 -97 -154 -15 -17 -43 -41 -61 -53 -17 -12 -34 -31 -37 -43
-6 -22 -64 -67 -86 -67 -6 0 -23 -8 -37 -18 -15 -10 -54 -29 -87 -41 -33 -13
-78 -30 -100 -38 -22 -8 -55 -21 -73 -29 -18 -8 -47 -14 -63 -14 -17 0 -57 -6
-88 -14 -145 -35 -288 -43 -401 -21 -64 12 -167 38 -182 46 -10 5 -26 9 -36 9
-10 0 -57 23 -103 51 -46 28 -102 59 -124 69 -43 19 -225 187 -225 209 0 7
-11 22 -24 32 -14 11 -30 36 -36 57 -7 20 -25 64 -41 98 -32 68 -34 50 27 246
13 43 24 84 24 91 0 8 9 22 19 31 11 10 27 41 36 69 9 29 23 59 30 67 12 15
65 125 65 137 0 3 16 23 35 44 19 22 35 48 35 59 0 11 4 20 9 20 5 0 18 20 30
45 12 25 28 45 36 45 8 0 20 10 26 23 31 58 120 165 144 171 14 4 25 11 25 16
0 6 9 19 20 30 16 16 33 20 83 20 65 0 106 17 93 38 -4 7 -23 12 -41 12 -29 0
-36 4 -41 25 -7 28 7 55 58 106 67 68 176 149 200 149 11 0 27 13 36 30 9 16
30 35 46 42 16 6 48 26 71 44 23 17 53 35 66 39 13 4 42 24 64 45 22 21 67 51
100 67 33 16 76 39 95 51 19 12 42 22 51 22 8 0 24 8 35 18 20 18 85 52 101
52 17 0 89 39 103 54 7 9 24 16 39 16 14 0 44 12 66 25 22 14 47 25 55 25 8 0
28 7 44 15 15 8 38 15 50 15 11 0 44 12 71 25 28 14 60 25 73 25 23 0 213 48
302 75 25 8 83 17 130 20 47 3 105 13 130 22 102 35 645 41 825 8 44 -8 98
-15 120 -15 22 0 60 -6 85 -14 25 -7 70 -17 100 -20 30 -4 74 -16 97 -26 23
-11 95 -37 160 -59 127 -42 172 -60 244 -97 26 -13 56 -24 67 -24 11 0 33 -11
49 -23 15 -13 62 -46 103 -73 188 -126 280 -191 292 -210 4 -6 21 -17 38 -24
17 -7 38 -26 46 -41 8 -16 28 -36 44 -44 17 -9 30 -22 30 -29 0 -8 13 -25 28
-38 15 -13 31 -31 35 -41 3 -9 15 -17 25 -17 19 0 112 -104 112 -125 0 -8 13
-23 29 -35 17 -11 32 -29 36 -39 3 -9 20 -24 38 -32 24 -10 43 -33 73 -89 23
-41 51 -84 63 -96 12 -12 21 -27 21 -34 0 -23 32 -80 45 -80 8 0 16 -15 20
-32 4 -18 13 -42 19 -53 7 -11 16 -33 20 -49 4 -16 18 -43 31 -61 14 -17 29
-56 35 -86 6 -30 19 -66 30 -81 11 -15 20 -35 20 -45 1 -10 7 -29 15 -43 8
-14 14 -35 15 -48 0 -12 6 -33 14 -45 8 -12 20 -53 27 -92 6 -38 15 -74 19
-80 4 -5 11 -26 14 -45 4 -19 11 -46 16 -60 5 -14 11 -47 14 -75 3 -27 10 -86
15 -130 29 -246 33 -320 27 -540 -11 -401 -17 -540 -27 -550 -5 -5 -9 -27 -9
-50 0 -22 -7 -53 -15 -69 -8 -15 -15 -35 -15 -42 0 -8 -4 -14 -10 -14 -15 0
-37 -51 -45 -104 -5 -33 -13 -50 -24 -53 -10 -2 -23 -23 -30 -48 -7 -24 -24
-57 -37 -72 -13 -15 -24 -31 -24 -35 0 -10 -38 -48 -48 -48 -4 0 -20 -25 -35
-55 -15 -30 -31 -55 -36 -55 -5 0 -44 -36 -87 -81 -44 -45 -89 -85 -101 -90
-13 -5 -23 -15 -23 -22 0 -8 -31 -38 -70 -68 -38 -29 -70 -57 -70 -62 0 -19
-103 -108 -131 -114 -19 -4 -35 -16 -45 -34 -8 -16 -20 -26 -27 -24 -14 6 -57
-53 -57 -80 0 -23 28 -44 60 -45 59 -1 68 -33 80 -295 6 -121 15 -256 20 -300
6 -44 10 -116 10 -162 0 -45 4 -93 10 -107 5 -14 11 -56 14 -93 2 -38 9 -111
15 -163 6 -52 14 -134 17 -182 l6 -88 77 0 78 0 6 122 c10 170 8 350 -4 438
-5 41 -14 122 -19 180 -5 58 -14 143 -20 190 -6 47 -13 146 -15 220 -6 148
-10 188 -26 268 -10 55 -2 82 25 82 6 0 17 9 24 20 7 11 18 20 26 20 7 0 42
30 78 67 68 70 106 103 120 103 4 0 8 5 8 11 0 16 52 87 104 144 26 28 58 62
71 77 14 14 30 39 37 55 7 15 24 44 38 63 15 19 43 67 64 105 21 39 46 79 56
90 30 32 99 213 124 326 8 35 24 100 35 144 35 143 53 256 62 394 11 160 3
436 -16 536 -8 39 -17 97 -21 130 -4 33 -13 74 -20 92 -8 18 -14 50 -14 72 0
22 -9 60 -20 86 -11 26 -20 56 -20 68 0 20 -15 77 -29 107 -4 8 -20 56 -36
105 -16 50 -35 93 -41 97 -6 4 -17 22 -24 40 -7 18 -21 52 -31 75 -11 24 -19
49 -19 57 0 7 -8 24 -19 37 -10 13 -21 33 -25 45 -3 11 -26 58 -51 105 -24 46
-55 107 -69 135 -13 28 -29 55 -35 58 -12 8 -81 112 -81 123 0 3 -18 30 -40
59 -22 29 -40 57 -40 61 0 5 -13 24 -29 43 -15 19 -38 54 -50 78 -12 23 -25
42 -29 42 -4 0 -33 25 -62 56 -91 94 -122 124 -130 124 -4 0 -13 11 -20 25 -7
13 -29 36 -49 50 -20 13 -76 63 -126 110 -56 52 -113 96 -151 115 -34 17 -64
36 -67 43 -2 6 -21 18 -41 25 -20 7 -59 29 -88 49 -29 19 -78 46 -108 60 -30
13 -63 28 -72 33 -24 13 -130 49 -226 75 -46 13 -89 28 -95 34 -7 5 -44 15
-82 21 -39 7 -79 16 -90 22 -29 13 -222 45 -410 67 -204 25 -372 31 -610 21z
m-831 -3519 c7 -11 -14 -20 -31 -13 -7 2 -10 8 -7 13 7 12 31 12 38 0z m49
-126 c54 -14 108 -32 120 -39 12 -8 58 -24 102 -36 44 -11 92 -30 107 -40 15
-11 37 -20 48 -20 11 0 50 -13 85 -30 35 -16 69 -30 75 -30 5 0 10 -4 10 -10
0 -5 19 -19 41 -31 23 -11 51 -30 63 -41 12 -11 35 -25 51 -32 17 -8 64 -47
106 -87 l77 -74 -18 -45 c-11 -25 -19 -59 -19 -75 -1 -34 -35 -138 -56 -171
-7 -11 -18 -47 -24 -78 -13 -68 -20 -83 -32 -65 -6 9 -9 -2 -9 -32 0 -31 -11
-67 -35 -116 -23 -46 -35 -86 -35 -112 0 -25 -12 -67 -31 -107 -17 -36 -33
-83 -36 -105 -3 -21 -12 -44 -19 -50 -8 -6 -14 -19 -14 -28 0 -9 -7 -27 -16
-39 -9 -13 -18 -37 -21 -55 -3 -17 -14 -50 -25 -72 -12 -22 -22 -62 -24 -89
-1 -26 -6 -52 -12 -58 -6 -6 -35 -4 -78 3 -65 12 -104 31 -104 51 0 18 -35 55
-48 50 -6 -2 -12 1 -12 8 0 6 -4 9 -9 5 -6 -3 -13 0 -18 7 -9 15 -48 38 -63
38 -15 0 -142 60 -160 75 -8 7 -80 32 -160 55 -203 59 -236 67 -310 80 -36 7
-85 16 -110 20 -25 5 -107 9 -183 9 -142 1 -187 -9 -200 -44 -10 -25 -26 -18
-84 38 -30 28 -66 62 -80 75 -20 18 -24 29 -18 50 21 85 25 174 14 292 -6 69
-9 154 -6 190 4 36 11 128 16 205 26 361 31 398 60 427 14 14 32 33 39 42 7 9
21 16 31 16 10 0 32 7 47 15 16 8 37 15 46 15 9 0 20 5 23 10 4 6 18 10 33 9
45 -2 125 12 162 28 27 13 40 14 63 5 20 -7 36 -8 48 -2 10 6 48 11 86 11 37
1 97 5 133 9 112 14 275 4 383 -25z m889 -1100 c25 -41 26 -48 19 -121 -7 -73
-9 -78 -48 -113 -80 -72 -128 -111 -136 -111 -10 0 2 62 12 70 12 8 41 89 41
113 0 12 7 35 15 51 8 15 15 36 15 46 0 10 5 20 11 22 7 2 13 22 14 43 3 47 2
45 18 45 6 0 24 -20 39 -45z m-1573 -390 c84 -4 141 -12 179 -25 31 -11 73
-20 93 -20 21 0 86 -18 146 -40 59 -22 112 -40 117 -40 17 0 146 -54 146 -61
0 -4 13 -10 29 -14 16 -3 37 -15 47 -26 9 -10 23 -19 30 -19 7 0 16 -5 19 -10
6 -10 -89 -5 -105 5 -3 2 -30 6 -60 10 -30 3 -59 10 -65 15 -5 4 -39 8 -75 9
-36 0 -81 7 -100 15 -20 8 -70 19 -112 25 -42 6 -96 18 -120 27 -24 8 -74 24
-113 34 -38 10 -107 34 -153 54 -46 20 -91 36 -100 36 -9 0 -25 7 -36 15 -17
13 -15 14 20 17 22 2 50 3 64 1 14 -1 81 -5 149 -8z"/>
<path d="M2422 2468 c-6 -7 -14 -26 -18 -42 -11 -47 -124 -136 -172 -136 -24
0 -106 -52 -139 -89 -30 -32 -33 -42 -33 -98 0 -34 4 -64 9 -68 5 -3 12 -19
16 -36 9 -42 60 -92 85 -84 25 8 25 12 0 75 -11 28 -20 68 -20 88 0 38 22 82
42 82 5 0 27 13 47 29 34 26 69 47 116 69 32 15 102 90 113 120 6 19 6 39 -2
62 -12 37 -28 47 -44 28z"/>
<path d="M2830 2330 c0 -5 7 -10 15 -10 8 0 15 5 15 10 0 6 -7 10 -15 10 -8 0
-15 -4 -15 -10z"/>
<path d="M2414 2245 c-4 -8 -13 -15 -22 -15 -32 0 -120 -51 -155 -89 -32 -35
-35 -44 -30 -83 2 -23 12 -60 21 -81 12 -31 13 -43 4 -58 -15 -24 -15 -40 2
-61 12 -16 14 -16 44 0 32 18 82 82 82 107 0 7 -7 21 -16 30 -10 9 -20 34 -24
55 -9 50 7 69 98 114 75 38 84 52 54 79 -23 21 -51 22 -58 2z"/>
<path d="M3160 2170 c0 -11 6 -20 13 -20 19 0 27 10 20 26 -8 21 -33 17 -33
-6z"/>
<path d="M3140 2026 c-10 -27 -6 -46 9 -46 13 0 21 53 11 64 -6 6 -14 -2 -20
-18z"/>
<path d="M1893 1951 c-89 -7 -103 -19 -74 -59 14 -20 35 -33 66 -41 52 -13 57
-25 15 -40 -43 -15 -39 -44 12 -81 23 -17 53 -33 67 -37 14 -3 38 -12 52 -19
14 -7 82 -20 151 -30 104 -14 130 -15 142 -5 44 37 -2 76 -97 86 -139 13 -248
47 -260 80 -5 11 0 15 18 15 13 0 26 -4 30 -9 3 -6 27 -13 53 -16 26 -3 72
-12 102 -20 119 -31 220 -26 220 9 0 21 -18 30 -80 37 -30 4 -68 10 -85 14
-16 3 -56 9 -87 12 -32 3 -63 12 -69 19 -6 8 -21 14 -33 14 -56 0 -88 26 -46
37 11 3 20 8 20 12 0 11 -23 31 -34 29 -6 -1 -43 -4 -83 -7z"/>
<path d="M2467 1848 c-26 -14 -21 -45 8 -52 13 -3 30 -16 36 -27 12 -24 1 -36
-89 -100 -29 -20 -41 -36 -38 -46 3 -8 6 -17 6 -19 0 -13 78 0 129 22 63 28
67 33 81 106 9 44 7 50 -18 77 -31 33 -90 53 -115 39z"/>
<path d="M1896 1674 c-19 -19 -21 -48 -3 -62 58 -48 172 -87 277 -95 117 -9
153 20 83 67 -27 19 -51 26 -83 26 -60 0 -178 34 -205 60 -26 24 -48 26 -69 4z"/>
<path d="M1658 1622 c-53 -45 -35 -68 87 -111 74 -26 85 -36 59 -56 -16 -13
-17 -16 -4 -25 8 -5 24 -10 35 -10 11 0 29 -7 39 -15 11 -8 32 -15 47 -15 14
0 38 -9 52 -20 17 -14 40 -20 74 -20 28 0 58 -6 69 -15 13 -10 45 -15 104 -15
47 0 90 -4 96 -8 7 -4 41 -6 76 -4 71 4 120 30 101 54 -5 7 -13 26 -17 43 -4
16 -13 33 -19 37 -7 4 -54 8 -106 8 -52 0 -108 4 -125 9 -28 9 -88 21 -201 41
-22 4 -53 13 -70 20 -37 16 -31 15 -85 24 -47 8 -90 30 -90 45 0 5 6 9 13 8
33 -1 47 4 47 17 0 23 -20 30 -90 31 -53 0 -69 -4 -92 -23z"/>
<path d="M2960 1476 c0 -8 5 -18 10 -21 6 -3 10 3 10 14 0 12 -4 21 -10 21 -5
0 -10 -6 -10 -14z"/>
<path d="M2355 1170 c3 -5 17 -10 31 -10 13 0 24 5 24 10 0 6 -14 10 -31 10
-17 0 -28 -4 -24 -10z"/>
<path d="M2462 1138 c3 -7 13 -15 23 -17 17 -3 17 -2 3 13 -20 19 -31 21 -26
4z"/>
<path d="M3240 1435 c0 -8 4 -15 9 -15 5 0 11 7 15 15 3 9 0 15 -9 15 -8 0
-15 -7 -15 -15z"/>
<path d="M3207 1403 c-4 -3 -7 -17 -7 -30 0 -33 24 -24 28 10 3 26 -7 35 -21
20z"/>
<path d="M4816 6066 c7 -19 38 -22 32 -3 -3 6 -12 13 -21 15 -12 2 -15 -1 -11
-12z"/>
<path d="M4157 5909 c8 -8 16 -8 30 0 16 9 14 10 -11 11 -22 0 -27 -3 -19 -11z"/>
<path d="M1877 5023 c-4 -3 -7 -17 -7 -29 0 -34 -21 -74 -39 -74 -21 0 -44 53
-36 80 4 11 2 20 -4 20 -6 0 -13 -11 -17 -24 -3 -13 -19 -36 -34 -50 -27 -24
-29 -29 -23 -78 10 -89 16 -103 47 -106 20 -3 33 4 48 23 17 22 26 26 53 21
54 -10 77 48 51 125 -9 24 -16 56 -16 72 0 26 -9 34 -23 20z"/>
<path d="M1470 4985 c0 -8 7 -15 15 -15 8 0 15 7 15 15 0 8 -7 15 -15 15 -8 0
-15 -7 -15 -15z"/>
<path d="M1556 4855 c-27 -19 -55 -35 -63 -35 -7 0 -22 -9 -33 -20 -11 -11
-31 -20 -43 -20 -13 0 -31 -8 -40 -18 -20 -21 -47 -35 -288 -145 -31 -15 -61
-33 -68 -41 -7 -8 -29 -20 -49 -27 -50 -15 -64 -34 -50 -65 9 -20 17 -24 37
-20 14 3 43 8 64 12 20 3 40 10 43 15 2 5 26 15 52 23 96 30 143 50 227 92 11
6 49 24 85 41 143 66 154 72 226 128 51 39 54 45 47 75 -8 32 -20 40 -63 40
-24 0 -50 -11 -84 -35z"/>
<path d="M3880 4710 c0 -5 5 -10 10 -10 6 0 10 5 10 10 0 6 -4 10 -10 10 -5 0
-10 -4 -10 -10z"/>
<path d="M2471 4674 c0 -11 3 -14 6 -6 3 7 2 16 -1 19 -3 4 -6 -2 -5 -13z"/>
<path d="M156 4613 c-13 -13 -6 -42 9 -37 16 7 20 30 6 38 -4 3 -11 3 -15 -1z"/>
<path d="M4150 4570 c0 -5 5 -10 11 -10 5 0 7 5 4 10 -3 6 -8 10 -11 10 -2 0
-4 -4 -4 -10z"/>
<path d="M1355 4550 c3 -5 15 -10 26 -10 10 0 19 5 19 10 0 6 -12 10 -26 10
-14 0 -23 -4 -19 -10z"/>
<path d="M2920 4470 c0 -5 7 -10 15 -10 8 0 15 5 15 10 0 6 -7 10 -15 10 -8 0
-15 -4 -15 -10z"/>
<path d="M2881 4334 c0 -11 3 -14 6 -6 3 7 2 16 -1 19 -3 4 -6 -2 -5 -13z"/>
<path d="M3307 4274 c-11 -11 -8 -44 3 -44 15 0 24 30 13 41 -5 5 -12 6 -16 3z"/>
<path d="M5004 4196 c-7 -19 3 -36 22 -36 10 0 14 8 12 22 -4 26 -26 36 -34
14z"/>
<path d="M1193 4160 c-2 -3 -48 -8 -101 -13 -216 -17 -220 -17 -245 -43 -30
-29 -26 -61 9 -76 13 -6 24 -15 24 -20 0 -5 9 -4 19 2 11 5 43 10 72 10 l51 0
-7 -67 c-7 -69 -15 -83 -48 -83 -45 0 -20 -68 35 -96 43 -22 326 -18 423 7
103 26 105 27 105 64 0 38 -14 52 -55 57 -29 3 -30 4 -29 58 l2 55 58 2 c114
5 144 12 144 34 0 33 -52 76 -111 93 -51 14 -334 28 -346 16z"/>
<path d="M3825 4020 c-12 -4 -27 -15 -34 -24 -7 -9 -25 -16 -40 -16 -53 0 -92
-51 -58 -78 6 -5 28 -13 47 -17 43 -9 60 -22 60 -46 0 -22 -41 -42 -65 -33
-23 9 -30 -24 -13 -60 13 -26 27 -35 79 -53 144 -48 371 -72 492 -53 45 7 95
14 111 16 31 4 66 30 66 49 0 32 -29 47 -125 65 -93 19 -114 29 -115 57 0 14
36 27 50 18 15 -9 147 -45 165 -45 8 0 24 14 34 31 17 27 17 34 5 58 -18 36
-69 57 -174 71 -47 6 -101 15 -120 20 -19 5 -84 11 -145 15 -100 6 -141 12
-185 28 -8 3 -24 2 -35 -3z"/>
<path d="M2095 3940 c-9 -15 7 -41 24 -38 24 5 25 35 1 41 -11 3 -22 1 -25 -3z"/>
<path d="M5004 3659 c-3 -6 -2 -15 4 -21 13 -13 32 -2 32 18 0 16 -26 19 -36
3z"/>
<path d="M2261 3474 c0 -11 3 -14 6 -6 3 7 2 16 -1 19 -3 4 -6 -2 -5 -13z"/>
<path d="M2877 3443 c-4 -3 -7 -11 -7 -17 0 -6 5 -5 12 2 6 6 9 14 7 17 -3 3
-9 2 -12 -2z"/>
<path d="M256 3403 c-12 -12 -6 -109 8 -128 13 -18 14 -18 21 5 15 47 12 111
-6 120 -9 5 -19 6 -23 3z"/>
<path d="M403 3393 c-4 -10 -15 -25 -25 -35 -11 -9 -23 -38 -28 -65 -5 -26
-13 -67 -19 -91 -9 -34 -8 -54 4 -95 20 -67 29 -81 49 -74 19 7 27 26 55 127
30 109 35 159 18 205 -15 43 -43 58 -54 28z"/>
<path d="M4556 3366 c-14 -19 -26 -39 -26 -44 0 -6 -6 -12 -14 -15 -18 -7 -29
-85 -21 -151 6 -44 11 -55 28 -60 36 -9 71 15 74 51 1 17 14 57 28 89 29 65
31 93 10 134 -20 39 -47 38 -79 -4z"/>
<path d="M4512 3350 c0 -14 2 -19 5 -12 2 6 2 18 0 25 -3 6 -5 1 -5 -13z"/>
<path d="M4858 3283 c6 -3 12 -12 12 -21 0 -15 2 -15 10 -2 14 22 12 26 -12
27 -13 0 -17 -1 -10 -4z"/>
<path d="M1974 3125 c-9 -22 22 -53 37 -38 15 15 7 47 -14 51 -9 2 -20 -4 -23
-13z"/>
<path d="M1937 3043 c-12 -11 -7 -41 9 -57 23 -23 34 -20 34 12 0 37 -25 63
-43 45z"/>
<path d="M2520 2844 c0 -9 5 -14 12 -12 18 6 21 28 4 28 -9 0 -16 -7 -16 -16z"/>
<path d="M3075 2610 c3 -5 8 -10 11 -10 2 0 4 5 4 10 0 6 -5 10 -11 10 -5 0
-7 -4 -4 -10z"/>
<path d="M510 2560 c0 -5 5 -10 10 -10 6 0 10 5 10 10 0 6 -4 10 -10 10 -5 0
-10 -4 -10 -10z"/>
<path d="M3605 1729 c-10 -15 1 -23 20 -15 9 3 13 10 10 16 -8 13 -22 13 -30
-1z"/>
<path d="M5520 1470 c0 -5 7 -10 15 -10 8 0 15 5 15 10 0 6 -7 10 -15 10 -8 0
-15 -4 -15 -10z"/>
<path d="M3932 1373 c2 -10 10 -18 18 -18 8 0 16 8 18 18 2 12 -3 17 -18 17
-15 0 -20 -5 -18 -17z"/>
<path d="M3482 1210 c1 -16 7 -35 15 -41 7 -6 13 -19 13 -29 0 -16 29 -50 43
-50 19 0 3 52 -23 78 -16 17 -30 37 -30 46 0 8 -4 17 -9 21 -5 3 -9 -8 -9 -25z"/>
<path d="M752 1199 c2 -7 10 -15 17 -17 8 -3 12 1 9 9 -2 7 -10 15 -17 17 -8
3 -12 -1 -9 -9z"/>
<path d="M858 1203 c7 -3 16 -2 19 1 4 3 -2 6 -13 5 -11 0 -14 -3 -6 -6z"/>
<path d="M798 1124 c-5 -4 -8 -19 -8 -33 0 -18 3 -22 11 -14 6 6 9 21 7 33 -1
12 -6 18 -10 14z"/>
<path d="M3785 830 c3 -5 11 -10 16 -10 6 0 7 5 4 10 -3 6 -11 10 -16 10 -6 0
-7 -4 -4 -10z"/>
<path d="M1027 730 c-3 -11 -1 -20 4 -20 5 0 9 9 9 20 0 11 -2 20 -4 20 -2 0
-6 -9 -9 -20z"/>
<path d="M3500 690 c0 -5 5 -10 10 -10 6 0 10 5 10 10 0 6 -4 10 -10 10 -5 0
-10 -4 -10 -10z"/>
<path d="M4087 614 c-14 -14 -7 -35 11 -32 9 2 17 10 17 17 0 16 -18 25 -28
15z"/>
</g>
</svg>
