<?xml version="1.0" standalone="no"?>
<!DOCTYPE svg PUBLIC "-//W3C//DTD SVG 20010904//EN"
 "http://www.w3.org/TR/2001/REC-SVG-20010904/DTD/svg10.dtd">
<svg version="1.0" xmlns="http://www.w3.org/2000/svg"
 width="256.000000pt" height="256.000000pt" viewBox="0 0 256.000000 256.000000"
 preserveAspectRatio="xMidYMid meet">
<metadata>
Created by potrace 1.11, written by Peter Selinger 2001-2013
</metadata>
<g transform="translate(0.000000,256.000000) scale(0.100000,-0.100000)"
fill="#000000" stroke="none">
<path d="M1200 2546 c0 -10 -20 -16 -72 -21 -240 -22 -476 -130 -737 -339 -89
-72 -294 -296 -321 -351 -17 -34 -25 -75 -31 -158 -6 -82 -12 -114 -23 -123
-23 -17 -24 -369 -1 -378 8 -3 15 -16 15 -30 0 -13 19 -62 42 -107 49 -95 172
-232 274 -305 34 -24 65 -51 68 -59 3 -9 -3 -32 -14 -53 -10 -20 -28 -68 -39
-107 -10 -38 -31 -104 -46 -145 -36 -103 -75 -270 -75 -325 0 -36 3 -45 18
-45 14 0 22 21 41 117 13 65 41 170 61 233 20 63 45 141 54 172 17 57 29 71
40 46 3 -7 3 16 0 52 -7 83 13 379 26 395 17 20 129 44 263 56 130 12 117 13
291 -35 79 -22 181 -77 241 -130 l50 -43 -42 -129 c-22 -71 -62 -191 -89 -266
-26 -76 -45 -141 -40 -145 4 -4 20 7 37 25 16 18 40 32 52 32 32 0 64 25 71
55 6 24 10 20 43 -45 44 -85 96 -147 160 -189 44 -29 84 -40 82 -23 0 4 -27
27 -59 52 -68 51 -138 134 -171 203 -26 54 -19 84 28 114 23 15 47 18 150 17
68 -1 123 0 123 2 0 9 -86 26 -169 33 -88 7 -95 10 -115 37 -11 16 -32 39 -46
52 -26 23 -26 24 -14 90 6 37 15 75 19 85 11 25 -62 92 -149 138 l-69 37 42
26 c44 28 61 58 61 106 0 39 -9 60 -27 60 -12 0 -14 -8 -10 -38 13 -77 -51
-131 -139 -117 -52 7 -104 49 -104 83 0 32 -11 32 -49 2 -69 -58 -164 -25
-177 61 -7 43 -24 53 -24 15 0 -36 18 -78 47 -108 l25 -27 -33 -5 c-19 -3 -60
-7 -91 -11 -59 -5 -164 -39 -185 -59 -16 -14 -33 -130 -33 -224 l0 -73 -45 31
c-163 112 -260 230 -322 389 -23 59 -26 80 -25 197 0 178 10 207 47 138 66
-124 271 -214 458 -201 139 8 306 92 357 178 52 88 60 92 165 87 102 -4 120
-13 131 -61 25 -116 104 -205 238 -268 121 -57 199 -72 330 -66 104 4 113 7
192 47 75 38 87 48 122 105 57 90 77 156 76 247 -1 80 -20 149 -57 202 -23 33
-103 86 -129 86 -29 0 -21 -28 15 -46 81 -41 117 -108 124 -230 10 -160 -46
-261 -182 -329 l-80 -40 -130 1 c-116 0 -137 3 -197 27 -136 53 -218 121 -261
215 -31 69 -31 236 1 307 33 72 69 121 116 155 52 39 70 38 96 -4 43 -71 249
-166 370 -172 87 -5 80 0 -60 44 -116 36 -287 118 -301 143 -5 11 -6 19 -2 20
4 0 -5 5 -22 10 -47 14 -95 -5 -147 -58 -57 -58 -110 -167 -116 -238 l-4 -51
-109 1 -108 0 6 91 c4 71 2 102 -11 142 -21 62 -51 102 -77 102 -25 0 -25 -32
1 -55 26 -23 52 -106 52 -165 0 -50 -22 -130 -53 -190 -57 -113 -224 -195
-399 -195 -101 0 -165 18 -256 71 -87 51 -160 158 -151 224 12 93 108 273 204
383 34 40 76 89 93 109 39 47 235 178 348 233 110 54 233 98 342 121 122 26
481 27 590 1 213 -52 374 -149 543 -328 165 -174 249 -353 292 -616 13 -80 16
-144 12 -290 -5 -209 -15 -252 -84 -363 -39 -62 -230 -260 -283 -293 -34 -21
-34 -21 -10 -27 24 -6 25 -10 32 -105 4 -55 15 -178 24 -272 17 -172 18 -173
42 -173 l25 0 -6 128 c-3 70 -13 199 -22 287 l-16 159 43 36 c133 109 256 291
272 402 4 26 14 54 22 62 11 12 14 58 14 249 0 130 -4 237 -8 239 -5 2 -18 43
-30 92 -26 107 -106 278 -188 402 -113 171 -278 316 -439 387 -83 36 -229 77
-275 77 -70 0 -130 12 -130 26 0 11 -29 14 -145 14 -118 0 -145 -3 -145 -14z
m-262 -1428 c24 -24 14 -40 -20 -33 -43 9 -45 12 -22 30 23 18 27 18 42 3z
m399 -535 c-7 -71 -49 -160 -81 -175 -15 -6 -29 -9 -32 -6 -9 9 25 127 52 179
13 27 24 59 24 72 0 36 12 41 28 11 10 -19 13 -45 9 -81z m53 18 c0 -12 -20
-25 -27 -18 -7 7 6 27 18 27 5 0 9 -4 9 -9z"/>
<path d="M700 1975 c-6 -8 -9 -19 -5 -25 11 -17 22 -11 27 15 6 28 -3 32 -22
10z"/>
<path d="M485 1888 c-88 -47 -119 -67 -96 -64 35 6 189 76 251 114 l35 22 -30
-1 c-16 -1 -88 -33 -160 -71z"/>
<path d="M358 1653 c-21 -2 -38 -8 -38 -13 0 -5 17 -10 38 -12 32 -3 37 -6 36
-28 0 -14 -3 -35 -7 -47 -7 -19 -3 -22 32 -28 42 -7 151 3 151 14 0 3 -7 15
-15 25 -8 11 -15 30 -15 43 0 20 5 23 35 23 36 0 47 13 19 24 -16 6 -172 5
-236 -1z"/>
<path d="M1518 1594 c-13 -13 -9 -21 12 -27 26 -7 26 -32 -1 -50 -20 -15 -20
-15 13 -25 44 -15 190 -26 222 -18 40 10 31 24 -20 32 -85 12 -66 59 20 48 60
-8 55 9 -7 24 -57 15 -230 26 -239 16z"/>
<path d="M116 1332 c-8 -13 -11 -91 -4 -98 7 -6 28 60 28 89 0 18 -15 23 -24
9z"/>
<path d="M1837 1318 c-2 -13 -8 -31 -12 -40 -4 -11 -3 -18 4 -18 12 0 41 61
34 73 -8 14 -21 7 -26 -15z"/>
<path d="M207 1303 c-4 -3 -7 -24 -7 -47 0 -48 15 -38 24 17 6 34 -1 47 -17
30z"/>
<path d="M297 1263 c-4 -3 -7 -11 -7 -17 0 -6 5 -5 12 2 6 6 9 14 7 17 -3 3
-9 2 -12 -2z"/>
<path d="M859 877 c-27 -18 -34 -30 -36 -57 0 -19 1 -25 4 -13 2 12 22 38 44
57 44 41 39 47 -12 13z"/>
<path d="M902 840 c-14 -22 -17 -109 -3 -94 7 7 23 114 17 114 -1 0 -7 -9 -14
-20z"/>
<path d="M720 740 c0 -14 48 -35 58 -26 8 9 -26 36 -45 36 -7 0 -13 -5 -13
-10z"/>
<path d="M1002 671 c-14 -38 -11 -49 7 -27 7 8 11 25 9 38 -3 20 -5 19 -16
-11z"/>
<path d="M757 643 c-9 -9 12 -33 29 -33 17 0 18 12 2 28 -14 14 -22 15 -31 5z"/>
<path d="M646 622 c-5 -9 103 -66 111 -59 2 2 -10 10 -26 17 -16 6 -37 20 -47
31 -18 20 -30 24 -38 11z"/>
<path d="M450 499 c0 -61 167 -147 380 -194 102 -23 314 -33 308 -14 -6 19
-50 28 -158 33 -201 9 -440 86 -507 165 -17 20 -23 22 -23 10z"/>
<path d="M550 459 c0 -7 9 -9 21 -6 29 8 197 -18 274 -42 35 -11 90 -34 124
-50 71 -36 81 -38 56 -11 -30 33 -135 77 -238 99 -105 23 -237 28 -237 10z"/>
</g>
</svg>
